<svg xmlns="http://www.w3.org/2000/svg" width="512" height="512" viewBox="0 0 512 512">
  <path d="M56 405.333V405.91L56.0827 406.48C61.8829 446.514 97.191 477.333 138.667 477.333C162.418 477.333 182.003 469.861 196.244 455.656C203.484 461.71 211.614 466.639 220.364 470.261C231.728 474.965 243.911 477.371 256.21 477.341C268.509 477.31 280.68 474.844 292.021 470.084C300.736 466.425 308.829 461.468 316.028 455.394C330.285 469.677 349.858 477.333 373.333 477.333C418.925 477.333 456 440.258 456 394.667V234.667C456 124.393 366.296 34.6666 256 34.6666C145.704 34.6666 56 124.393 56 234.667V405.333Z" fill="#FFFFFF" stroke="#FFFFFF" stroke-width="16" />
  <path d="M256 42.6666C150.123 42.6666 64 128.811 64 234.667V405.333C69.2267 441.408 101.141 469.333 138.667 469.333C163.712 469.333 182.912 460.437 195.669 444.288C203.603 452.254 213.036 458.569 223.424 462.869C233.811 467.169 244.948 469.369 256.19 469.341C267.433 469.313 278.558 467.058 288.925 462.707C299.291 458.356 308.693 451.994 316.587 443.989C329.408 460.245 348.672 469.333 373.333 469.333C414.507 469.333 448 435.84 448 394.667V234.667C448 128.811 361.877 42.6666 256 42.6666ZM405.333 394.667C405.333 412.309 390.976 426.667 373.333 426.667C363.755 426.667 341.333 426.667 341.333 384V362.667H298.667V384C298.667 407.531 279.531 426.667 256 426.667C232.469 426.667 213.333 407.531 213.333 384V362.667H170.667V384C170.667 423.36 154.155 426.667 138.667 426.667C121.024 426.667 106.667 412.309 106.667 394.667V234.667C106.667 152.32 173.675 85.3333 256 85.3333C338.325 85.3333 405.333 152.32 405.333 234.667V394.667Z" fill="#000000" />
  <path d="M192 256C215.564 256 234.667 236.897 234.667 213.333C234.667 189.769 215.564 170.667 192 170.667C168.436 170.667 149.333 189.769 149.333 213.333C149.333 236.897 168.436 256 192 256Z" fill="#000000" />
  <path d="M320 256C343.564 256 362.667 236.897 362.667 213.333C362.667 189.769 343.564 170.667 320 170.667C296.436 170.667 277.333 189.769 277.333 213.333C277.333 236.897 296.436 256 320 256Z" fill="#000000" />
</svg>
